<svg viewBox="0 0 520 340" fill="none" xmlns="http://www.w3.org/2000/svg">
  <defs>
    <linearGradient id="bg-grad" x1="20" y1="16" x2="486" y2="324" gradientUnits="userSpaceOnUse">
      <stop stop-color="#2563EB" stop-opacity="0.18"/>
      <stop offset="0.5" stop-color="#7C3AED" stop-opacity="0.16"/>
      <stop offset="1" stop-color="#10B981" stop-opacity="0.14"/>
    </linearGradient>
  </defs>
  <rect x="14" y="14" width="492" height="312" rx="34" fill="url(#bg-grad)"/>
  <rect x="48" y="46" width="300" height="232" rx="18" fill="white"/>
  <rect x="72" y="74" width="190" height="14" rx="7" fill="#DBEAFE"/>
  <rect x="72" y="98" width="132" height="11" rx="5.5" fill="#E2E8F0"/>
  <path d="M74 224L126 188L170 198L214 144L258 160L300 116" stroke="#2563EB" stroke-width="6" stroke-linecap="round" stroke-linejoin="round"/>
  <circle cx="214" cy="144" r="9" fill="#10B981"/>
  <circle cx="300" cy="116" r="9" fill="#7C3AED"/>
  <rect x="368" y="92" width="106" height="156" rx="20" fill="white"/>
  <rect x="386" y="112" width="70" height="12" rx="6" fill="#E2E8F0"/>
  <rect x="386" y="132" width="52" height="10" rx="5" fill="#DBEAFE"/>
  <rect x="386" y="162" width="20" height="54" rx="10" fill="#2563EB"/>
  <rect x="414" y="180" width="20" height="36" rx="10" fill="#7C3AED"/>
  <rect x="442" y="154" width="20" height="62" rx="10" fill="#10B981"/>
  <circle cx="422" cy="264" r="26" fill="#F1F5F9"/>
  <path d="M410 268C410 261.373 415.373 256 422 256C428.627 256 434 261.373 434 268V274H410V268Z" fill="#7C3AED"/>
  <circle cx="417" cy="266" r="2.6" fill="white"/>
  <circle cx="427" cy="266" r="2.6" fill="white"/>
  <rect x="415" y="276" width="14" height="2.6" rx="1.3" fill="white"/>
</svg>
